<svg xmlns="http://www.w3.org/2000/svg" xmlns:xlink="http://www.w3.org/1999/xlink" viewBox="0 0 423.73 95.5"><defs><style>.cls-1{fill:#58595b;}.cls-2{fill:#00a79d;}.cls-3{fill:#808285;}.cls-4{fill:url(#linear-gradient);}.cls-5{fill:url(#linear-gradient-2);}</style><linearGradient id="linear-gradient" x1="25.18" y1="97.77" x2="203.85" y2="-20.9" gradientUnits="userSpaceOnUse"><stop offset="0" stop-color="#2bb673"/><stop offset="0.03" stop-color="#22b37c"/><stop offset="0.11" stop-color="#0fac8e"/><stop offset="0.19" stop-color="#04a899"/><stop offset="0.28" stop-color="#00a79d"/><stop offset="0.67" stop-color="#27aae1"/><stop offset="0.89" stop-color="#1b75bc"/><stop offset="1" stop-color="#2b3990"/></linearGradient><linearGradient id="linear-gradient-2" x1="20.38" y1="90.54" x2="199.05" y2="-28.13" xlink:href="#linear-gradient"/></defs><title>MtnTop_logo_hoz</title><g id="Layer_2" data-name="Layer 2"><g id="Layer_1-2" data-name="Layer 1"><path class="cls-1" d="M205.67,56.94c-.12-3.36-.25-7.43-.25-11.49h-.12c-.87,3.57-2,7.55-3.11,10.82l-3.4,10.91h-4.93l-3-10.82c-.91-3.28-1.86-7.26-2.53-10.91h-.08c-.17,3.77-.29,8.09-.5,11.57l-.5,10.61h-5.84l1.78-27.94h8.42L194.35,49c.87,3.23,1.75,6.71,2.37,10h.12c.79-3.24,1.74-6.93,2.65-10l3-9.29h8.25l1.53,27.94h-6.17Z"/><path class="cls-1" d="M237.06,57.27c0,7.42-5.26,10.82-10.7,10.82-5.92,0-10.48-3.9-10.48-10.45S220.19,46.9,226.7,46.9C232.92,46.9,237.06,51.17,237.06,57.27Zm-14.68.2c0,3.49,1.46,6.1,4.15,6.1,2.45,0,4-2.45,4-6.1,0-3-1.16-6.09-4-6.09C223.5,51.38,222.38,54.49,222.38,57.47Z"/><path class="cls-1" d="M260.07,61.12c0,2.66.09,4.81.17,6.51h-5.47l-.29-2.86h-.13A7.21,7.21,0,0,1,248,68.09c-4.11,0-7.13-2.57-7.13-8.83V47.36h6.34v10.9c0,3,.95,4.73,3.15,4.73a3.38,3.38,0,0,0,3.15-2.2,3.44,3.44,0,0,0,.21-1.37V47.36h6.34Z"/><path class="cls-1" d="M265.13,53.83c0-2.53-.08-4.69-.16-6.47h5.47l.29,2.78h.13a7.4,7.4,0,0,1,6.26-3.24c4.14,0,7.25,2.74,7.25,8.71v12h-6.3V56.4c0-2.62-.91-4.4-3.19-4.4a3.37,3.37,0,0,0-3.2,2.37,4.43,4.43,0,0,0-.24,1.57V67.63h-6.31Z"/><path class="cls-1" d="M296.23,41.55v5.81h4.52V52h-4.52v7.34c0,2.45.58,3.57,2.49,3.57a10.35,10.35,0,0,0,1.86-.17l.05,4.77a12.46,12.46,0,0,1-4.11.54,6.6,6.6,0,0,1-4.73-1.74c-1.16-1.21-1.74-3.16-1.74-6V52h-2.69V47.36h2.69V43Z"/><path class="cls-1" d="M315.93,67.63l-.38-2h-.12a7.3,7.3,0,0,1-5.81,2.49,6.22,6.22,0,0,1-6.55-6.22c0-5.27,4.73-7.79,11.9-7.75v-.29c0-1.08-.58-2.62-3.69-2.62a11.35,11.35,0,0,0-5.59,1.54l-1.17-4.06a16.71,16.71,0,0,1,7.88-1.79c6.76,0,8.92,4,8.92,8.75V62.7a31,31,0,0,0,.29,4.93Zm-.75-9.57c-3.32-.05-5.89.74-5.89,3.19a2.27,2.27,0,0,0,2.49,2.4,3.42,3.42,0,0,0,3.27-2.32,4.15,4.15,0,0,0,.13-1.08Z"/><path class="cls-1" d="M332.8,41.72a3.16,3.16,0,0,1-3.4,3.15,3.17,3.17,0,1,1,0-6.34A3.16,3.16,0,0,1,332.8,41.72Zm-6.51,25.91V47.36h6.31V67.63Z"/><path class="cls-1" d="M337.65,53.83c0-2.53-.08-4.69-.16-6.47H343l.29,2.78h.13a7.4,7.4,0,0,1,6.26-3.24c4.14,0,7.25,2.74,7.25,8.71v12h-6.3V56.4c0-2.62-.91-4.4-3.19-4.4a3.37,3.37,0,0,0-3.2,2.37,4.43,4.43,0,0,0-.24,1.57V67.63h-6.31Z"/><path class="cls-2" d="M365.19,45h-7.51V39.69h21.48V45h-7.63V67.63h-6.34Z"/><path class="cls-2" d="M399,57.27c0,7.42-5.27,10.82-10.7,10.82-5.93,0-10.49-3.9-10.49-10.45S382.1,46.9,388.61,46.9C394.83,46.9,399,51.17,399,57.27Zm-14.68.2c0,3.49,1.45,6.1,4.15,6.1,2.44,0,4-2.45,4-6.1,0-3-1.16-6.09-4-6.09C385.42,51.38,384.3,54.49,384.3,57.47Z"/><path class="cls-2" d="M402.88,54.16c0-2.66-.09-4.94-.17-6.8h5.47l.29,2.82h.09a7.77,7.77,0,0,1,6.76-3.28c4.43,0,8.41,3.86,8.41,10.33,0,7.38-4.68,10.86-9.2,10.86a6.32,6.32,0,0,1-5.27-2.32h-.08V75.84h-6.3Zm6.3,4.77a6.46,6.46,0,0,0,.12,1.32,3.83,3.83,0,0,0,3.69,3c2.74,0,4.36-2.28,4.36-5.72,0-3.24-1.45-5.68-4.27-5.68A4,4,0,0,0,409.3,55a5,5,0,0,0-.12,1.12Z"/><path class="cls-3" d="M192.59,89.75a10.17,10.17,0,0,1-4.47.87c-4,0-7.88-2.6-7.88-8.5,0-4.94,3.19-8.69,8.42-8.69a8.53,8.53,0,0,1,3.88.74l-.4,1a7.9,7.9,0,0,0-3.45-.72c-4.5,0-7.24,2.92-7.24,7.71,0,4.52,2.59,7.43,7,7.43a8.8,8.8,0,0,0,3.75-.77Z"/><path class="cls-3" d="M205.35,84.3c0,4.44-3,6.32-5.68,6.32-3.06,0-5.43-2.4-5.43-6.1,0-4.08,2.67-6.3,5.6-6.3C203.13,78.22,205.35,80.67,205.35,84.3Zm-9.92.14c0,3,1.9,5.19,4.32,5.19s4.42-2.22,4.42-5.26c0-2.17-1.24-5.19-4.35-5.19S195.43,81.9,195.43,84.44Z"/><path class="cls-3" d="M208.36,81.33c0-1.08-.05-1.9-.1-2.84h1.09l.1,2.15h.05a4.45,4.45,0,0,1,4.07-2.42c1.14,0,4.12.57,4.12,5v7.11h-1.16v-7c0-2.15-.84-4.1-3.28-4.1A3.8,3.8,0,0,0,209.69,82a3.86,3.86,0,0,0-.17,1.06v7.33h-1.16Z"/><path class="cls-3" d="M221.1,88.79a5.3,5.3,0,0,0,2.67.81c1.87,0,2.76-1,2.76-2.24s-.79-2-2.49-2.69c-1.95-.74-3-1.81-3-3.24,0-1.7,1.33-3.21,3.65-3.21a4.71,4.71,0,0,1,2.62.74l-.47,1a3.83,3.83,0,0,0-2.35-.72,2.07,2.07,0,0,0-2.29,2.05c0,1.23.84,1.78,2.44,2.44,1.93.74,3.06,1.71,3.06,3.51,0,2-1.58,3.41-4,3.41a5.79,5.79,0,0,1-3-.84Z"/><path class="cls-3" d="M239.91,87.46c0,1,.05,2,.1,2.88h-1.09l-.07-2.09h0a4.6,4.6,0,0,1-4.07,2.37c-1.51,0-4-.75-4-5.24V78.49h1.16v6.67c0,2.57.82,4.42,3.16,4.42a3.84,3.84,0,0,0,3.48-2.4,4.06,4.06,0,0,0,.25-1.3V78.49h1.16Z"/><path class="cls-3" d="M243.91,72.82h1.16V90.34h-1.16Z"/><path class="cls-3" d="M250.77,75.88v2.61h3.39v.94h-3.39v7.7c0,1.51.47,2.47,1.73,2.47a4.61,4.61,0,0,0,1.36-.19l.15.91a4.21,4.21,0,0,1-1.66.3,2.46,2.46,0,0,1-2-.87,4.26,4.26,0,0,1-.74-2.81V79.43h-2v-.94h2V76.32Z"/><path class="cls-3" d="M258.3,75.11a1,1,0,0,1-1,1,1,1,0,0,1-.91-1,1,1,0,0,1,1-1A1,1,0,0,1,258.3,75.11Zm-1.53,15.23V78.49h1.16V90.34Z"/><path class="cls-3" d="M261.93,81.33c0-1.08-.05-1.9-.1-2.84h1.09l.1,2.15h.05a4.45,4.45,0,0,1,4.07-2.42c1.14,0,4.12.57,4.12,5v7.11H270.1v-7c0-2.15-.84-4.1-3.28-4.1A3.8,3.8,0,0,0,263.26,82a3.86,3.86,0,0,0-.17,1.06v7.33h-1.16Z"/><path class="cls-3" d="M284.59,88.62c0,3-.61,4.54-1.6,5.48a6,6,0,0,1-4,1.4,6.69,6.69,0,0,1-3.75-1l.42-.94a6.45,6.45,0,0,0,3.51,1c2.49,0,4.29-1.31,4.29-4.81V88.05h-.05a4.42,4.42,0,0,1-4.12,2.29c-3,0-5.08-2.59-5.08-5.82,0-4.13,2.71-6.3,5.33-6.3a4.22,4.22,0,0,1,4,2.27h.05l.05-2h1.08c-.05.89-.1,1.83-.1,3.07ZM283.43,83a4.51,4.51,0,0,0-.14-1.14,3.87,3.87,0,0,0-3.68-2.72c-2.52,0-4.25,2.08-4.25,5.21,0,2.67,1.41,5,4.2,5a3.85,3.85,0,0,0,3.65-2.67,3.59,3.59,0,0,0,.22-1.26Z"/><path class="cls-4" d="M138.47,62.93,118.54,33.55,99.42,5.36a3,3,0,0,0-5,0L84,20.76l19.34,28.51S111,60.22,118.39,71h15.8A5.18,5.18,0,0,0,138.47,62.93Z"/><path class="cls-5" d="M89.12,40.21,62.77,1.38a3.14,3.14,0,0,0-5.2,0L31.23,40.21.55,85.44a3.14,3.14,0,0,0,2.6,4.9H29.33l1.9-2.8L57.57,48.71a3.14,3.14,0,0,1,5.2,0L89.12,87.54l1.9,2.8H117.2a3.14,3.14,0,0,0,2.6-4.9Z"/></g></g></svg>